<?xml version="1.0" encoding="UTF-8"?>
<svg version="1.1" viewBox="0 0 2048 897" width="267" height="117" xmlns="http://www.w3.org/2000/svg">
<path transform="translate(915,140)" d="m0 0 5 2 9 11 13 18 8 11 10 13 10 15 29 43 13 20 12 17 12 21 7 17 5 18 2 17v14l-3 19-6 20-7 16-9 14-8 10-7 8-9 6-20 8-12 7-8 7-10 5-28 6h-5v-3l14-11 8-8 3-11 1-19 4-5 13-3-1-53v-9l-2-9-2-6-5-2-9-3-13-2-3-3 2-5 8-7 4-8 1-3v-13l-6-12-8-6-5-2h-11l-10 5-6 7-3 7v14l4 10 8 10 1 4-2 1-17 2-8 4-4 7-1 6-1 35v31l10 2 5 4 1 5-2 4-13 4-3 1-9-17-2-11-1-12v-39l2-15 6-8 10-9 4-4v-1l-16-1-4-1v-8l6-11 1-5-2-10-3-6-6-5-3-1h-8l-10 5-5 7-1 3v11l9 14-1 5-14 2-7 2-2 9-1 10v34l2 11 6 2 5 5-2 11 5 12 8 9 9 7 6 4v4l-8 1-18-3-6-3-9-9-13-21-8-19-7-25-1-6v-26l5-21 6-18 8-15 7-11 8-12 10-14 16-25 10-15 21-30 10-14 10-12 11-17 8-9zm-13 62-3 2 1 6v17l-23 1-2 2v27l3 2 20 1 2 2v9l-1 10 4 2h27l1-1v-22l24-1 2-2 1-26-3-4h-24v-23l-3-2zm78 96-8 4-6 7-1 2v13l6 12 3 4 1 4-21 2-2 2 10 8 6 9 3 7 1 6v56l-2 13-3 5-3 3v8l2 5 5 1 12-7 15-12 7-10 2-7v-12l2-5 6-3 4-5 1-3v-45l-3-10-6-4-17-3h-2l4-6 6-7 2-4v-12l-4-8-4-5-8-3z" fill="#A82231"/>
<path transform="translate(1496,283)" d="m0 0h22l11 1 1 3 4 101 2 40 3 14 4 6 6 3 12 2h12l12-3 8-5 6-7 4-10 6-21 2-12 1-1 9 1 26 5 1 5-2 12v20l4 8 5 4 12 3h33l25-3 23-5 24-8 19-10 1-2-5-2-14-6-16-4-16-2h-26l-6 1h-9l-2-7-3-22v-8l3-3 15-2h32l17 4 19 7 34 17 15 5 16 1 2 3 2 21v10l-5 3-18 6-20 10-22 12-19 9-17 6-21 6-26 4-14 1h-18l-15-2-11-4-10-6-10-7-5 2-7 6-12 6-17 4-8 1h-29l-17-3-13-5-9-7-6-8-5-13-2-14-3-94-2-65z" fill="#BF0C20"/>
<path transform="translate(566,358)" d="m0 0h5l4 10 7 28 4 23v24l-4 15-5 10-10 11-16 8-16 4-23 3h-23l-19-3-14-7-7-7-2-3-5 1-11 9-10 5-18 4-7 1h-25l-16-3-16-8-9-8-9-14-12-28-5-9-6-3h-10l-10 3-11 8-4 7-1 13 7 28-5 2-17 4-6 2h-9l-4-8-6-20-1-5v-16l4-14 7-12 9-11 14-10 13-6 17-5 5-1h19l12 3 11 6 7 8 7 16 8 20 6 10 1 3 4 2 12 4 6 1h11l12-3 9-6 6-8 5-14 3-16 2-12 2-1 26 5 9 2-1 11-1 8v15l3 9 9 6 13 3 8 1h17l15-2 6-3 5-5 1-3v-23l-4-18-9-29 1-3 15-4z" fill="#BF0C20"/>
<path transform="translate(728,419)" d="m0 0 5 2 10 10 7 8 17 13 14 8 21 8 18 4 10 1h27l20-4 26-9 11-2h15l5 3 2 3v8l-5 8-9 8-12 7-17 6-11 2h-6v3l4 2 10 4 14 3h24l14-4 19-9 18-14 9-6 9-2 5 4 2 10 3 1 4-3h5l5 4 3 4v3l9 3 8 7 1 3-9 9-15 10-25 13-22 8-25 5-26 3h-14l-21-2-23-5-20-7-19-9-16-10-16-12-12-11-11-11-10-13-12-19-8-14-10-22-1-9z" fill="#A82130"/>
<path transform="translate(1440,367)" d="m0 0 5 1 4 11 8 31 2 13v18l-3 11-5 10-10 11-11 7-15 6-18 5-25 4-23 2-23 1h-37l-28-2-17-3-15-5-12-6-9-7-8-8-6-10-4-12-1-6v-12l4-24 5-18 3-3 25 5 9 3v7l-4 16v14l4 9 7 8 16 8 13 3 24 2h41l30-2 20-3 15-4 11-6 5-7v-13l-5-25-6-18 1-3 23-7z" fill="#BF0C20"/>
<path transform="translate(958,181)" d="m0 0 9 1 21 5 15 6 18 11 15 11 15 13 11 11 9 11 12 18 12 23 8 22 6 25 2 14v28l-3 21-6 23-6 17-10 21-11 17-11 14-12 13-2 1 1-8 3-10 1-8-5 6-5 1-2-4v-10l2-6 3-25 1-14 9-27 3-18 1-10v-19l-3-17-6-20-7-16-8-14-10-13-12-14-10-10-13-17-10-15-7-11-7-10-5-8zm11 7 2 2 7 2-3-4z" fill="#5B5657"/>
<path transform="translate(871,181)" d="m0 0 3 1-12 5-6 4-14 9-1 1h12l1 1 6-11 2-1v3h3l-1 3-4 3 2 1-13 19-9 14-10 11-7 8-9 10-11 14-10 13-10 17-8 20-4 15-2 13-1 35-1 15-3 6-8 6-6 5-8-2-13-13-6-12-2-10v-33l3-21 6-21 8-20 11-21 10-14 8-10 9-10 13-13 14-11 14-10 16-9 11-4 20-4zm-16 7m4 7m-16 20m-5 1-4 5 1 2 3-3v-2h2l1 2 2-4zm-5 7-5 5 1 2 2-2 2 2 2-5zm-6 7m4 0m-5 1m-1 1-5 6 4-2 2-4zm-6 6-3 3 1 2 3-3zm-18 34m-3 2-8 12-6 10 1 2 13-19 2-5zm-15 24m-1 2m-1 1 1 2z" fill="#5C5758"/>
<path transform="translate(653,302)" d="m0 0h6l1 1 1 11 1 66 2 77v34l-1 1h-39l-1-14-3-82-2-71v-21l1-1h27z" fill="#BF0C21"/>
<path transform="translate(981,214)" d="m0 0 6 1 6 4 10 9 9 10 3 5-4-2-3-2 9 11 10 11 9 11 11 16 8 11 6 11 2 6 4 13 3 13 4 24 1 18-3 25-4 17-7 19-9 20-2 9 4 4 5-5 11-13 5-7 1 3-6 11-2 20-4 6-12 13-2 1 1-8 3-10 1-8-5 6-5 1-2-4v-10l2-6 3-25 1-14 9-27 3-18 1-10v-19l-3-17-6-20-7-16-8-14-10-13-12-14-10-10-13-17-10-15z" fill="#817B7B"/>
<path transform="translate(960,574)" d="m0 0 5 2 4 8 9 25 4 11 4 6 2-3v-31l1-16 26-1 6 2 1 2v9l-4 1h-14l-1 5 1 2 12 1 4 2 1 6-3 4-14 1-1 2-1 15-4 3h-8l-4-1-6 1-8-3-8-7-9-1-6 4-4 4-7 3-6-1 1-6 7-12 8-24 6-10zm-1 21-3 10 6 4h2l-1-8-3-6z" fill="#FCFCFC"/>
<path transform="translate(615,241)" d="m0 0 10 1 21 8 12 1 14-2 8 3 4 4-1 9-8 7-8 3-6 1h-9l-13-3-15-7-4-1h-7l-11 8-5-1-6-4-3-3 1-6 8-9 12-7z" fill="#BE0E22"/>
<path transform="translate(831,227)" d="m0 0 1 4-2 4-5 8-3 3-3 7-5 7-2 5-11 13-13 19-8 16-7 19-4 22-1 35-1 15-3 6-8 6-6 5-8-2-11-11-2-5 1-4h8l8 3 5 1 4-4 2-11 1-14 4-18 4-21 9-27 8-18 8-13 1-5-2 1 1-5 11-12 9-10 5-5h2l5-5zm-30 45m-3 2-8 12-6 10 1 2 13-19 2-5zm-15 24m-1 2m-1 1 1 2z" fill="#A59E9D"/>
<path transform="translate(736,575)" d="m0 0h10l9 3 6 5 6 10 1 3v17l-5 8-8 7-8 3h-14l-9-6-7-10-2-6v-15l6-10 7-6zm2 12-6 3-4 5-1 10 3 8 7 6h9l6-5 3-6v-8l-3-7-6-5-2-1z" fill="#FCFCFC"/>
<path transform="translate(790,575)" d="m0 0h12l8 2 5 3 6 8 2 5v21l-6 8-8 7-6 2h-11l-10-4-8-9-3-10v-9l4-11 8-10zm5 12-6 3-4 6-1 10 4 8 5 5 8 1 6-4 4-5 1-9-3-9-5-4z" fill="#FCFCFC"/>
<path transform="translate(831,576)" d="m0 0h20l9 3 8 8 4 8v16l-5 10-8 6-6 2-12 1-9-2-3-3-2-6-1-11v-10l3-19zm15 12-3 2-2 15v9l2 4 4 1 6-3 5-6v-13l-3-6-5-3z" fill="#FCFCFC"/>
<path transform="translate(789,271)" d="m0 0h3l1 2-3 7-6 10-9 21-8 24-4 21-4 18-2 21-3 7-3 2-5-1-9-3h-7l1 4 1 3-3-1-6-12-2-10v-33h1l1 8 2-14 1-3 5 1 1 4 1 28 4 13 9 11 2 1 3-3 4-44 2-14 6-21 6-15 8-15 11-16z" fill="#817B7B"/>
<path transform="translate(639,575)" d="m0 0h22l6 3 4 6 1 4v7l-3 5v3l5 3 1 2v11l-4 7-6 3h-24l-3-3-1-4v-35l1-11zm11 12v8l1 2h5l2-2-1-6-2-2zm1 21-2 2v7l4 3 7-1 3-3 1-6-1-1z" fill="#FBFBFB"/>
<path transform="translate(1173,575)" d="m0 0h29l3 4v8l-1 2h-15l-1 8h13l2 1v9l-3 2-14 1 1 7 1 1 15 2 2 4-1 5-3 1h-27l-2-3v-51z" fill="#FCFCFC"/>
<path transform="translate(1035,575)" d="m0 0h21l3 2v11l-1 1h-14l-3 2-1 6 16 1 1 1v6l-2 3-17 3 1 6 7 2 10 1 3 4-2 5-5 1h-24l-4-4v-32l2-17 1-1z" fill="#FCFCFC"/>
<path transform="translate(408,520)" d="m0 0h12l9 6 6 10 1 5-5 10-7 6-7 2-11-1-6-4-6-7-1-3v-8l4-8 8-7z" fill="#BE0D21"/>
<path transform="translate(571,294)" d="m0 0h11l9 6 5 7 1 3v9l-4 7-7 7-7 2-8-1-6-3-6-7-2-5v-8l4-10 8-6z" fill="#BE0D22"/>
<path transform="translate(1586,520)" d="m0 0h12l8 4 5 6 3 8-1 8-4 6-7 6-2 1h-14l-8-6-5-7v-12l6-9 4-4z" fill="#BE0D21"/>
<path transform="translate(1137,575)" d="m0 0h28l2 2v10l-2 1-12 1-2 2-1 6 13 2 3 3v5l-4 3h-13l1 17-5 3h-8l-3-5-1-18v-17l1-14z" fill="#FCFCFC"/>
<path transform="translate(908,576)" d="m0 0h19l3 2 1 7-3 3h-14l-3 2 1 4 17 10 4 5v7l-5 8-5 6-2 1h-14l-9-3-3-3v-8l2-4 6 2 7 4h8l-1-7-10-6-7-6-2-3v-11l4-7z" fill="#FDFDFD"/>
<path transform="translate(523,294)" d="m0 0h10l9 6 5 7 1 3v9l-4 7-7 6-4 2h-11l-9-6-5-8-1-7 3-8 7-8z" fill="#BE0D21"/>
<path transform="translate(458,520)" d="m0 0h9l9 4 5 6 2 5v9l-4 8-8 7h-13l-8-4-6-6-1-3v-11l4-8 6-5z" fill="#BE0D21"/>
<path transform="translate(1293,329)" d="m0 0h12l8 4 5 6 2 5v9l-6 9-7 5h-13l-8-4-6-9v-11l4-8 6-5z" fill="#BE0D21"/>
<path transform="translate(1639,520)" d="m0 0 11 1 6 4 4 4 2 5v10l-4 8-6 5-3 1h-13l-8-4-5-7-1-3v-10l3-6 7-6z" fill="#BE0E22"/>
<path transform="translate(1344,329)" d="m0 0h8l8 3 7 8 1 3v11l-4 8-5 4-4 1h-12l-8-4-6-8-1-6 2-9 7-8z" fill="#BE0D21"/>
<path transform="translate(1080,576)" d="m0 0h13l2 2-2 34 2 6 8 2 9 2 5 5v2l-3 1h-31l-3-3-1-17v-33z" fill="#FDFDFD"/>
<path transform="translate(680,576)" d="m0 0h12l3 3-1 21v16l1 3 12 1 5 3 2 3v4h-30l-3-2-1-7-1-40z" fill="#FDFDFD"/>
<path transform="translate(1062,374)" d="m0 0h1l2 14 2 22v11l-4 15-8 18-7 17-1 5v7l3 1 3-2-2 4-3 2-4-1-1-3v-10l2-6 3-25 1-14 9-27 3-18z" fill="#A69F9E"/>
<path transform="translate(1116,576)" d="m0 0h11l1 1 1 51-2 2h-7l-3-3-2-13v-37z" fill="#FDFDFD"/>
<path transform="translate(1137,575)" d="m0 0h28l2 2v10l-2 1-12 1-5 5-4 1h-7l-3-3v-16z" fill="#DCDBDB"/>
<path transform="translate(1075,453)" d="m0 0 1 3-6 11-2 20-4 6-12 13-2 1 1-8 3-10 1-8-2 1 2-5 5-5 9-11z" fill="#A39C9B"/>
<path transform="translate(1035,575)" d="m0 0h21l3 2v11l-1 1h-14l-3 2-2 4-3-2v-7l-3-6h-4l-2 6h-1v-9l1-1z" fill="#D8D7D7"/>
<path transform="translate(1008,575)" d="m0 0h7l6 2 1 2v9l-4 1h-14l-2 5-1-2h-2l-4-8v-2h-6v-6z" fill="#DBDADA"/>
<path transform="translate(1025,267)" d="m0 0 5 3 6 7 5 5 11 19 8 18 2 9-1 14-2-4-6-20-7-16-8-14-10-13-3-6z" fill="#A29B9A"/>
<path transform="translate(958,181)" d="m0 0 9 1 17 4-4 1 5 8 1 3 5 2v3l-15 1-6-4-6-10zm11 7 2 2 7 2-3-4z" fill="#A59E9D"/>
<path transform="translate(844,213)" d="m0 0 6 3-5 10-10 13-15 16-6 7v-3l6-10 3-6h2l2-5 4-5 3-6 1-5 3-4 4-1-4-2z" fill="#817B7B"/>
<path transform="translate(831,576)" d="m0 0h20l8 3-3 2-3-1h-21l-2 32-2 6h-1l-1-10v-10l3-19z" fill="#DBDADA"/>
<path transform="translate(790,575)" d="m0 0h12l8 2 5 3 2 3-35-1 1-4z" fill="#DBDADA"/>
<path transform="translate(1080,576)" d="m0 0h13l2 2-1 14-4 1-3-6-6 1-2-1v-10z" fill="#DBDADA"/>
<path transform="translate(871,181)" d="m0 0 3 1-12 5-6 4-8 5-9 1-2-1 2-4h2l-1-4 13-3 14-3z" fill="#86807F"/>
<path transform="translate(1173,575)" d="m0 0h27l1 5-1 1-28 1v-6z" fill="#DBDADA"/>
<path transform="translate(1072,460)" d="m0 0 1 2-3 5-2 20-4 6-4 5h-2l2-15 9-19z" fill="#817B7B"/>
<path transform="translate(1008,597)" d="m0 0h8l4 2 1 6-3 4h-7l-4-2-1-8h2z" fill="#DCDBDB"/>
<path transform="translate(1042,598)" d="m0 0h14l1 1v6l-2 3-4 1h-9v-3l3-3 1-4z" fill="#DBDADA"/>
<path transform="translate(844,218)" d="m0 0 2 3-1 5-10 13-11 12h-2l2-5h2l2-4 11-13 1-2-2-1v-3z" fill="#645F5F"/>
<path transform="translate(1116,576)" d="m0 0h11l1 1v7l-1-2-8 4-4 1v-10z" fill="#DBDADA"/>
<path transform="translate(966,191)" d="m0 0 3 2v2l7 1 10 6v-2l4-1 2 3-1 1-15 1-6-4-4-6z" fill="#837D7D"/>
<path transform="translate(831,227)" d="m0 0 1 3h-2l-2 4-8 9-9 9h-3l-4 3 2-4 10-10h2l5-5z" fill="#968F8E"/>
<path transform="translate(861,190)" d="m0 0v3h1 3l-1 3-4 3 2 1-4 6-1-2h-2l-2 6h-1v-7l-3-1 4-1 1 1 6-11z" fill="#8D8686"/>
<path transform="translate(639,575)" d="m0 0h19l-3 3-17 3v-5z" fill="#F3F2F2"/>
<path transform="translate(1051,599)" d="m0 0h4l1 2v6l-5 2h-3v-2h2v-7z" fill="#FDFDFD"/>
<path transform="translate(686,576)" d="m0 0h6l3 3v8l-1 5-2-4-2-8z" fill="#DBDADA"/>
<path transform="translate(837,233)" d="m0 0 1 2-14 16h-2l2-5h2l2-4z" fill="#686363"/>
<path transform="translate(971,184)" d="m0 0 10 1 3 2h-4l2 3-1 3-5-3z" fill="#888282"/>
<path transform="translate(844,213)" d="m0 0 6 3-3 6-3-3-3 2 1-4-4-2z" fill="#7F7979"/>
<path transform="translate(979,192)" d="m0 0 5 2 2 4 2 2h-2v2l-6-2-1-4-2-2z" fill="#9E9796"/>
<path transform="translate(919,458)" d="m0 0h5l-1 4h-2l-1 5-3 1-1-2 2-7z" fill="#BE0B1F"/>
<path transform="translate(831,227)" d="m0 0 1 3h-2l-2 4-8 9-3 1 2-4 5-5z" fill="#898282"/>
<path transform="translate(1055,578)" d="m0 0 4 1v7l-4 2-1-5z" fill="#A69F9E"/>
<path transform="translate(999,239)" d="m0 0 5 5 9 11h-3l-8-9-3-4z" fill="#716B6C"/>
<path transform="translate(650,575)" d="m0 0h8l-3 3-5 1h-7l4-3z" fill="#C6C3C3"/>
<path transform="translate(1075,453)" d="m0 0 1 3-2 4-4 4h-2l2-4z" fill="#958E8E"/>
<path transform="translate(516,453)" d="m0 0h10l-2 2-8 1-9-1v-1z" fill="#9C2C39"/>
<path transform="translate(861,190)" d="m0 0v3h1 3l-1 3-4 2-2 3v-2l-2-1z" fill="#A69F9E"/>
<path transform="translate(854,187)" d="m0 0h6l-5 5h-6l1-4z" fill="#A49D9C"/>
<path transform="translate(838,218)" d="m0 0h2l1 3-1 2h-2l-2 4-2-4z" fill="#A49D9C"/>
<path transform="translate(960,574)" d="m0 0 5 2 1 3-8-1-1-3z" fill="#DCDBDB"/>
<path transform="translate(796,282)" d="m0 0v3l-7 10-2-1 7-10z" fill="#A69F9E"/>
<path transform="translate(832,225)" d="m0 0 2 1-2 1z" fill="#A69F9E"/>
<path transform="translate(853,197)" d="m0 0" fill="#A69F9E"/>
<path transform="translate(1048,508)" d="m0 0" fill="#A69F9E"/>
<path transform="translate(1049,507)" d="m0 0" fill="#A69F9E"/>
</svg>
